<svg width="20" height="24" viewBox="0 0 20 24" fill="none" xmlns="http://www.w3.org/2000/svg">
<path d="M1.42857 21.7501C1.42857 22.3468 1.65434 22.9191 2.0562 23.3411C2.45806 23.763 3.00311 24.0001 3.57143 24.0001H16.4286C16.9969 24.0001 17.5419 23.763 17.9438 23.3411C18.3457 22.9191 18.5714 22.3468 18.5714 21.7501V6.00007H1.42857V21.7501ZM13.5714 9.75007C13.5714 9.55115 13.6467 9.36039 13.7806 9.21974C13.9146 9.07908 14.0963 9.00007 14.2857 9.00007C14.4752 9.00007 14.6568 9.07908 14.7908 9.21974C14.9247 9.36039 15 9.55115 15 9.75007V20.2501C15 20.449 14.9247 20.6397 14.7908 20.7804C14.6568 20.921 14.4752 21.0001 14.2857 21.0001C14.0963 21.0001 13.9146 20.921 13.7806 20.7804C13.6467 20.6397 13.5714 20.449 13.5714 20.2501V9.75007ZM9.28571 9.75007C9.28571 9.55115 9.36097 9.36039 9.49492 9.21974C9.62888 9.07908 9.81056 9.00007 10 9.00007C10.1894 9.00007 10.3711 9.07908 10.5051 9.21974C10.639 9.36039 10.7143 9.55115 10.7143 9.75007V20.2501C10.7143 20.449 10.639 20.6397 10.5051 20.7804C10.3711 20.921 10.1894 21.0001 10 21.0001C9.81056 21.0001 9.62888 20.921 9.49492 20.7804C9.36097 20.6397 9.28571 20.449 9.28571 20.2501V9.75007ZM5 9.75007C5 9.55115 5.07525 9.36039 5.20921 9.21974C5.34316 9.07908 5.52485 9.00007 5.71429 9.00007C5.90373 9.00007 6.08541 9.07908 6.21936 9.21974C6.35332 9.36039 6.42857 9.55115 6.42857 9.75007V20.2501C6.42857 20.449 6.35332 20.6397 6.21936 20.7804C6.08541 20.921 5.90373 21.0001 5.71429 21.0001C5.52485 21.0001 5.34316 20.921 5.20921 20.7804C5.07525 20.6397 5 20.449 5 20.2501V9.75007ZM19.2857 1.50007H13.9286L13.5089 0.623507C13.42 0.436107 13.2831 0.27847 13.1135 0.168331C12.944 0.0581915 12.7485 -8.09006e-05 12.5491 6.92536e-05H7.44643C7.24749 -0.00073374 7.05236 0.0573214 6.8834 0.167583C6.71443 0.277845 6.57846 0.435854 6.49107 0.623507L6.07143 1.50007H0.714286C0.524845 1.50007 0.343164 1.57909 0.209209 1.71974C0.0752549 1.86039 0 2.05116 0 2.25007L0 3.75007C0 3.94898 0.0752549 4.13975 0.209209 4.2804C0.343164 4.42105 0.524845 4.50007 0.714286 4.50007H19.2857C19.4752 4.50007 19.6568 4.42105 19.7908 4.2804C19.9247 4.13975 20 3.94898 20 3.75007V2.25007C20 2.05116 19.9247 1.86039 19.7908 1.71974C19.6568 1.57909 19.4752 1.50007 19.2857 1.50007Z" fill="#84A98C"/>
</svg>
